<?xml version="1.0" ?>
<!DOCTYPE svg  PUBLIC '-//W3C//DTD SVG 1.1//EN'  'http://www.w3.org/Graphics/SVG/1.1/DTD/svg11.dtd'>
<svg enable-background="new 0 0 512 302.705" height="302.705px" id="Layer_1" version="1.1" viewBox="0 0 512 302.705" width="512px" xml:space="preserve" xmlns="http://www.w3.org/2000/svg" xmlns:xlink="http://www.w3.org/1999/xlink">
	<g id="meanicons_x5F_32" fill="#fff">
		<g>
			<path d="M431.727,140.751h-2.086c-5.617-49.358-47.479-87.699-98.338-87.699c-17.578,0-34.111,4.604-48.402,12.629    C263.906,26.401,223.714-0.705,177.133-0.705c-64.827,0-117.423,52.597-117.423,117.401c0,8.998,1.068,17.733,2.986,26.151    c-35.709,8.265-62.352,40.251-62.352,78.528c0,44.516,36.083,80.623,80.598,80.623l13.139-0.563h323.395l14.25,0.563    c44.518,0,80.619-36.107,80.619-80.623C512.346,176.829,476.243,140.751,431.727,140.751z M347.77,276.884    c-9.388,9.336-22.758,11.119-29.904,4.021l-54.582-54.628c-27.637,13.575-62.002,8.928-84.996-14.066    c-28.951-28.949-28.951-75.857,0-104.791c28.939-28.926,75.816-28.926,104.75,0c23.059,22.994,27.684,57.334,14.084,84.996    l54.604,54.586C358.895,254.171,357.064,267.563,347.77,276.884z"/>
			<path d="M200.19,129.321c-16.857,16.836-16.811,44.129,0,60.941c16.816,16.863,44.129,16.904,60.966,0.041    c16.836-16.854,16.836-44.146,0-60.982C244.319,112.487,217.007,112.487,200.19,129.321z"/>
		</g>
	</g>
	<g id="Layer_1_1_"/>
</svg>