<svg xmlns="http://www.w3.org/2000/svg" xmlns:xlink="http://www.w3.org/1999/xlink" version="1.1" x="0px" y="0px" width="100px" height="100px" viewBox="0 0 100 100" enable-background="new 0 0 100 100" xml:space="preserve">
<g id="Captions">
</g>
<g id="Your_Icon">
	<polygon fill="#fff" points="23.136,30.27 50.056,57.628 76.968,30.27 59.532,30.27 59.532,0 40.572,0 40.572,30.27  "/>
	<g>
		<path fill="#fff" d="M78.355,81.835c-0.064-0.155-6.045-11.853-6.045-11.853c-1.308-2.609-4.759-4.937-7.675-4.937H48.001    H35.484c-2.917,0-6.367,2.6-7.675,5.206c0,0-5.98,11.312-6.045,11.47c-0.917,2.384,0.387,3.299,3.117,3.299h23.119h27.237    C77.969,85.021,79.272,84.221,78.355,81.835z"/>
		<path fill="#fff" d="M80.164,83.906c1.011,2.626-0.307,4.108-3.319,4.108H48.001H23.155c-3.013,0-4.33-1.482-3.319-4.108    c-1.454,1.065-2.293,3.363-2.293,5.295v5.848c0,3.218,2.398,4.951,5.612,4.951h24.846h28.844c3.214,0,5.612-1.733,5.612-4.951    v-5.848C82.457,87.27,81.618,84.972,80.164,83.906z"/>
	</g>
</g>
</svg>
