<svg xmlns="http://www.w3.org/2000/svg" xmlns:xlink="http://www.w3.org/1999/xlink" version="1.1" id="Layer_1" x="0px" y="0px" width="100px" height="100px" viewBox="0 0 100 100" style="enable-background:new 0 0 100 100;" xml:space="preserve">
<g fill="#fff">
	<g>
		<path d="M27.687,20.292v-6.885c0-1.8-1.46-3.26-3.262-3.26c-1.8,0-3.262,1.46-3.262,3.26v6.885H27.687z"/>
		<path d="M21.163,46.377v40.217c0,1.8,1.462,3.26,3.262,3.26c1.802,0,3.262-1.46,3.262-3.26V46.377H21.163z"/>
	</g>
	<path style="fill-rule:evenodd;clip-rule:evenodd;" d="M32.758,39.84c0,1.609-1.304,2.915-2.913,2.915h-10.84   c-1.608,0-2.912-1.305-2.912-2.915V27.553c0-1.609,1.304-2.915,2.912-2.915h10.84c1.609,0,2.913,1.305,2.913,2.915V39.84z"/>
	<g>
		<path d="M54,53V13.407c0-1.8-1.699-3.26-3.5-3.26s-3.5,1.46-3.5,3.26V53H54z"/>
		<path d="M46.37,77.786v8.808c0,1.8,1.616,3.26,3.416,3.26c1.801,0,3.416-1.46,3.416-3.26v-8.808H46.37z"/>
	</g>
	<path style="fill-rule:evenodd;clip-rule:evenodd;" d="M57.821,71.3c0,1.61-1.304,2.916-2.912,2.916H44.067   c-1.608,0-2.91-1.306-2.91-2.916V59.014c0-1.609,1.302-2.914,2.91-2.914h10.842c1.608,0,2.912,1.305,2.912,2.914V71.3z"/>
	<g>
		<path d="M80,35V13.407c0-1.8-1.699-3.26-3.5-3.26c-1.802,0-3.5,1.46-3.5,3.26V35H80z"/>
		<path d="M73,61v25.594c0,1.8,1.698,3.26,3.5,3.26c1.801,0,3.5-1.46,3.5-3.26V61H73z"/>
	</g>
	<path style="fill-rule:evenodd;clip-rule:evenodd;" d="M83.907,53.358c0,1.609-1.304,2.915-2.912,2.915h-10.84   c-1.609,0-2.913-1.306-2.913-2.915V41.071c0-1.609,1.304-2.913,2.913-2.913h10.84c1.608,0,2.912,1.304,2.912,2.913V53.358z"/>
</g>
</svg>
